<svg xmlns="http://www.w3.org/2000/svg" fill="none" viewBox="0 0 150 32"><mask id="a" width="150" height="32" x="0" y="0" maskUnits="userSpaceOnUse" style="mask-type:luminance"><path fill="#fff" d="M150 0H0v32h150V0Z"/></mask><g mask="url(#a)"><path fill="#FFE100" d="m133.396.416 9.448 15.733h6.838L140.233.416h-6.837Zm2.609 15.734-9.448 15.733h6.837l9.45-15.734-6.839.001Z"/><path fill="#4B4A46" d="M73.807 21.788c-.96.503-2.05.794-2.96.794-1.997 0-3.341-1.174-3.341-3.603V9.815h5.697V6.447h-5.697V.416h-4.237v6.031H58.91v3.368h4.36v9.439c0 4.817 2.932 7.166 7.291 7.166 1.142 0 2.14-.175 3.246-.618v-4.014Z"/><path fill="#BFBAB2" d="M116.501 25.872H98.478l11.715-16.056H99.107V6.447h18.04l-11.412 16.058h10.766v3.367Zm-39.161 0h4.237V6.447H77.34v19.425ZM88.582 5.898c-1.99 0-3.693.464-5.092 1.318v3.967c1.036-1.019 2.444-1.525 4.115-1.525 2.892 0 4.807 2.115 4.807 5.288v10.926h4.277v-11.75c0-4.855-3.26-8.224-8.107-8.224Z"/><path fill="#4B4A46" d="M57.146 6.297c-1.855-.381-6.143.034-8.834 4.302V6.447h-4.236v19.426h4.236v-6.854c0-6.807 4.093-9.77 8.834-9.204V6.297Zm-40.689 7.55 3.726-2.068c-1.43-3.335-4.743-5.524-8.559-5.838v3.777c2.272.284 4.152 1.614 4.833 4.129Z"/><path fill="#4B4A46" d="M16.33 19.29c-1.094 2.324-3.204 3.37-5.657 3.37-3.748 0-6.518-2.545-6.518-6.5 0-3.504 2.313-6.022 5.566-6.435V5.939C4.363 6.371 0 10.426 0 16.16c0 6.15 4.888 10.262 10.673 10.262 4.016 0 7.577-1.961 9.207-5.161l-3.55-1.971Z"/><path fill="#4B4A46" fill-rule="evenodd" d="M31.57 22.896c2.149 0 4.333-.582 5.766-3.047l3.292 1.828c-1.86 3.16-5.11 4.743-9.058 4.743-5.5 0-10.306-4.072-10.306-10.221 0-6.188 4.766-10.3 10.47-10.3 5.417 0 9.898 3.994 10.102 9.83v1.41H25.46c.407 3.602 3.136 5.757 6.11 5.757Zm5.907-8.655c-.652-3.173-2.974-4.74-5.744-4.74-2.648 0-5.5 1.606-6.15 4.74h11.894Z" clip-rule="evenodd"/></g></svg>