<svg xmlns="http://www.w3.org/2000/svg" fill="none" viewBox="0 0 96 44"><g fill="#1C4650" clip-path="url(#a)"><path d="M40.888.198h3.925l2.37 7.48 2.37-7.48h3.334l2.369 7.48 2.369-7.48h3.801L56.884 12.64h-3.357l-2.345-7.06-2.37 7.06H45.43L40.888.197v.001Zm21.475 0h3.653v1.358C66.61.791 68.015 0 69.868 0c2.74 0 4.64 1.776 4.64 4.715v7.922h-3.653V5.48c0-1.406-.863-2.296-2.123-2.296-1.728 0-2.716 1.432-2.716 4v5.456h-3.653V.198ZM.296 32.555V29.37c.914.444 1.655.616 2.197.616.766 0 1.679-.246 2.1-1.307l.272-.691L0 15.966h3.95l2.763 7.306 2.864-7.306h3.876L7.899 29.839c-.913 2.221-2.518 3.259-5.183 3.259-.691 0-1.628-.199-2.42-.543Zm28.059-8.59v-8h3.629v7.11c0 1.457.839 2.346 2.147 2.346 1.704 0 2.69-1.456 2.69-4.047v-5.406h3.652v12.441H36.82v-1.382c-.593.792-1.998 1.58-3.851 1.58-2.716 0-4.617-1.776-4.617-4.64l.003-.002Zm14.405-7.999h3.653v1.408c.69-.964 2.099-1.604 3.529-1.604.518 0 .963.05 1.382.246v3.43a4.673 4.673 0 0 0-1.703-.296c-1.654 0-3.208 1.284-3.208 4.69v4.567H42.76V15.966Zm.095 15.357h3.654v1.358c.592-.765 1.998-1.556 3.85-1.556 2.74 0 4.641 1.776 4.641 4.715v7.922h-3.653v-7.157c0-1.406-.863-2.296-2.123-2.296-1.728 0-2.715 1.432-2.715 4v5.456h-3.654V31.323Zm14.096 8.542V26.288h3.653v13.156c0 1.086.643 1.406 1.482 1.332v3.16c-2.715.321-5.135-.542-5.135-4.073v.002Zm6.665-8.542h3.653v12.441h-3.653V31.323Zm5.826 0h3.653v1.358c.593-.765 2-1.556 3.852-1.556 2.74 0 4.64 1.776 4.64 4.715v7.922h-3.653v-7.157c0-1.406-.863-2.296-2.123-2.296-1.728 0-2.716 1.432-2.716 4v5.456h-3.653V31.323Zm13.601 6.197c0-3.727 2.666-6.393 6.319-6.393 4.222 0 6.74 3.209 6.146 7.258h-8.862c.296 1.729 1.432 2.592 2.888 2.592 1.21 0 1.999-.543 2.271-1.358h3.63c-.495 2.642-2.616 4.344-5.877 4.344-4.024 0-6.517-2.69-6.517-6.443h.002Zm8.69-1.728c-.05-1.16-.963-1.951-2.369-1.951-1.406 0-2.22.64-2.592 1.95l4.961.001ZM34.414 39.5a1.957 1.957 0 1 0 0-3.915 1.957 1.957 0 0 0 0 3.915Z"/><path d="M34.414 31.125c-3.827 0-6.615 2.642-6.615 6.393s2.764 6.443 6.615 6.443c3.851 0 6.615-2.666 6.615-6.443 0-3.778-2.766-6.393-6.615-6.393Zm2.047 9.065a3.351 3.351 0 0 1-5.293-1.755 3.352 3.352 0 0 1 3.647-4.22 3.351 3.351 0 0 1 2.914 3.743 3.351 3.351 0 0 1-1.268 2.232ZM19.924 24.24a1.957 1.957 0 1 0 0-3.915 1.957 1.957 0 0 0 0 3.915Z"/><path d="M19.924 15.863c-3.828 0-6.615 2.642-6.615 6.393s2.763 6.443 6.615 6.443c3.851 0 6.615-2.666 6.615-6.443 0-3.777-2.766-6.393-6.615-6.393Zm2.064 9.08a3.351 3.351 0 0 1-5.293-1.755 3.352 3.352 0 0 1 4.89-3.806 3.354 3.354 0 0 1 .403 5.561ZM34.414 8.392a1.958 1.958 0 1 0 0-3.915 1.958 1.958 0 0 0 0 3.915Z"/><path d="M34.414.017c-3.825 0-6.615 2.642-6.615 6.393s2.766 6.443 6.615 6.443c3.85 0 6.615-2.666 6.615-6.443 0-3.777-2.764-6.393-6.615-6.393Zm2.084 9.105a3.352 3.352 0 1 1-3.518-5.665c.44-.238.934-.36 1.434-.353.366 0 .708.06 1.02.172a3.352 3.352 0 0 1 1.064 5.846Z"/></g><defs><clipPath id="a"><path fill="#fff" d="M0 0h96v44H0z"/></clipPath></defs></svg>